<svg width="35" height="35" viewBox="0 0 35 35" fill="none" xmlns="http://www.w3.org/2000/svg">
<path d="M1.45801 1.5H7.29134L11.1997 21.585C11.333 22.2756 11.6983 22.8959 12.2315 23.3374C12.7647 23.779 13.4319 24.0135 14.1163 24H28.2913C28.9757 24.0135 29.643 23.779 30.1762 23.3374C30.7094 22.8959 31.0747 22.2756 31.208 21.585L33.5413 9H8.74968M14.583 31.5C14.583 32.3284 13.9301 33 13.1247 33C12.3193 33 11.6663 32.3284 11.6663 31.5C11.6663 30.6716 12.3193 30 13.1247 30C13.9301 30 14.583 30.6716 14.583 31.5ZM30.6247 31.5C30.6247 32.3284 29.9718 33 29.1663 33C28.3609 33 27.708 32.3284 27.708 31.5C27.708 30.6716 28.3609 30 29.1663 30C29.9718 30 30.6247 30.6716 30.6247 31.5Z" stroke="#1E1E1E" stroke-width="4" stroke-linecap="round" stroke-linejoin="round"/>
</svg>
